<?xml version="1.0" encoding="UTF-8"?>
<svg version="1.1" xmlns="http://www.w3.org/2000/svg" width="1024" height="1024">
<path d="M0 0 C337.92 0 675.84 0 1024 0 C1024 337.92 1024 675.84 1024 1024 C686.08 1024 348.16 1024 0 1024 C0 686.08 0 348.16 0 0 Z " fill="#FAF9F8" transform="translate(0,0)"/>
<path d="M0 0 C0.89589844 0.23332031 1.79179688 0.46664063 2.71484375 0.70703125 C20.27423706 5.76026007 32.91001038 17.4690568 42 33 C42.91984171 34.54861164 43.84048513 36.09674722 44.76171875 37.64453125 C46.96612236 41.35668014 49.15986162 45.07491478 51.34765625 48.796875 C53.84449158 53.04305516 56.35293613 57.28205495 58.87109375 61.515625 C66.28590179 73.98399946 73.61641376 86.4917322 80.8449707 99.06884766 C84.0370064 104.61700071 87.24859187 110.14872577 90.5625 115.625 C96.2706274 125.06660959 101.81532148 134.60326095 107.34472656 144.15039062 C108.85289785 146.74675865 110.37395383 149.33506692 111.8984375 151.921875 C112.72461933 153.34336603 113.55019119 154.76521185 114.375 156.1875 C114.75011719 156.8158374 115.12523437 157.4441748 115.51171875 158.09155273 C117.48852525 161.53808433 118.43559285 164.01207238 118 168 C114.39826867 169.63234504 111.54537201 170.26206661 107.60009766 170.31884766 C106.53834824 170.3386821 105.47659882 170.35851654 104.38267517 170.37895203 C102.6657119 170.39633171 102.6657119 170.39633171 100.9140625 170.4140625 C99.71612564 170.43374588 98.51818878 170.45342926 97.28395081 170.47370911 C93.39770249 170.53463547 89.51147488 170.58103731 85.625 170.625 C82.97306038 170.65871825 80.32112351 170.69265388 77.66918945 170.72680664 C73.73468755 170.77632726 69.80020221 170.82397292 65.86561584 170.86628723 C59.50656832 170.93547684 53.15076484 171.02860509 46.79376221 171.20526123 C44.55904528 171.26631717 42.32447497 171.31535674 40.08935547 171.35888672 C37.56569282 171.40973263 35.04232793 171.48156267 32.52001953 171.57861328 C24.78169101 171.6785442 24.78169101 171.6785442 20.98046875 168.37890625 C20.00013672 166.70634766 20.00013672 166.70634766 19 165 C18.34257813 163.9584375 17.68515625 162.916875 17.0078125 161.84375 C16.38648438 160.7403125 15.76515625 159.636875 15.125 158.5 C14.78331787 157.89397949 14.44163574 157.28795898 14.08959961 156.66357422 C11.15983884 151.41184746 8.50282556 146.03563872 5.84765625 140.640625 C2.50060919 133.95018687 -1.27175726 127.48296302 -5 121 C-5.52787109 120.08033447 -5.52787109 120.08033447 -6.06640625 119.14208984 C-9.08474966 113.24259071 -9.08474966 113.24259071 -13 108 C-15.78444577 107.24616662 -15.78444577 107.24616662 -19 108 C-24.1029756 113.14923932 -27.47282563 120.08273243 -30.9375 126.375 C-32.08088627 128.42511816 -33.22546415 130.47457209 -34.37109375 132.5234375 C-34.96390137 133.58530273 -35.55670898 134.64716797 -36.16748047 135.74121094 C-39.23059433 141.18837904 -42.36693775 146.5928628 -45.5 152 C-53.63623229 166.06833824 -61.65185721 180.20248617 -69.5703125 194.39453125 C-79.98933754 213.06388368 -79.98933754 213.06388368 -84.875 221.25 C-90.0997047 230.01557675 -94.98105122 238.96934408 -99.89257812 247.91235352 C-104.6943244 256.65271788 -109.56359372 265.35187438 -114.48535156 274.02539062 C-117.70893416 279.70838776 -120.90109574 285.40720245 -124.0625 291.125 C-127.5950863 297.50865848 -131.18652277 303.85643798 -134.8125 310.1875 C-139.03133636 317.55655464 -143.24778098 324.92683789 -147.4375 332.3125 C-147.9744751 333.25730225 -148.5114502 334.20210449 -149.06469727 335.17553711 C-151.91394409 340.21480994 -154.69548533 345.2808983 -157.39453125 350.40234375 C-164.14975008 363.20530587 -170.66046049 373.77626334 -181 384 C-181.52722656 384.52464844 -182.05445313 385.04929687 -182.59765625 385.58984375 C-196.79230962 398.64892485 -215.42887726 401.15177425 -233.8359375 401.16796875 C-235.15163727 401.17129715 -236.46733704 401.17462555 -237.82290649 401.17805481 C-240.5914187 401.18400794 -243.35989983 401.18589826 -246.12841797 401.18530273 C-249.67940951 401.18520041 -253.23020427 401.19894167 -256.78114891 401.21607494 C-260.17441517 401.22982875 -263.56764368 401.22928178 -266.9609375 401.23046875 C-268.23794525 401.23765427 -269.514953 401.24483978 -270.83065796 401.25224304 C-272.00593048 401.24916641 -273.181203 401.24608978 -274.39208984 401.24291992 C-275.42941254 401.24434494 -276.46673523 401.24576996 -277.53549194 401.24723816 C-280 401 -280 401 -282 399 C-280.91475655 386.93710168 -270.44591162 373.60388015 -264.59375 363.33203125 C-260.84646814 356.74855117 -257.16987981 350.12685429 -253.5 343.5 C-248.86970035 335.14571446 -244.21119944 326.80893491 -239.5 318.5 C-230.90676813 303.33702303 -222.44590145 288.09985241 -214.0546875 272.82421875 C-207.46236449 260.82809519 -200.81848138 248.86931644 -194 237 C-184.18432996 219.90713302 -174.6912919 202.6400145 -165.27880859 185.32226562 C-154.22870092 164.99566063 -142.7036204 144.95609715 -131 125 C-129.9309825 123.17522629 -128.86224072 121.35029126 -127.79351807 119.52534485 C-124.1478765 113.30008143 -120.498878 107.07679806 -116.847229 100.85505676 C-114.99288367 97.69488557 -113.14227878 94.5325876 -111.296875 91.3671875 C-104.05041362 78.95523026 -96.57199154 66.68289341 -89.08349609 54.41601562 C-87.16043106 51.26529494 -85.24638315 48.10914754 -83.33203125 44.953125 C-71.65361799 25.7799864 -60.30136894 8.43378965 -38 1 C-36.989375 0.62875 -35.97875 0.2575 -34.9375 -0.125 C-24.17329259 -3.33135965 -10.74197923 -3.3244408 0 0 Z " fill="#FA6B20" transform="translate(529,266)"/>
<path d="M0 0 C0.89413605 -0.00563965 1.78827209 -0.0112793 2.70950317 -0.01708984 C4.18525818 -0.01101715 4.18525818 -0.01101715 5.69082642 -0.00482178 C6.72522858 -0.00832642 7.75963074 -0.01183105 8.82537842 -0.01544189 C12.26317969 -0.02428041 15.70077675 -0.01839827 19.13858032 -0.01165771 C21.5283614 -0.01300478 23.91814222 -0.01494566 26.30792236 -0.01745605 C31.3301147 -0.02041103 36.35223607 -0.01610148 41.37442017 -0.0067749 C47.78761716 0.00455834 54.20064563 -0.00189842 60.61383629 -0.01391983 C65.55718227 -0.02118101 70.50048899 -0.01882995 75.44383621 -0.01366425 C77.80634201 -0.0123363 80.16885146 -0.0139453 82.531353 -0.01862335 C85.85283435 -0.02375171 89.17405198 -0.0158877 92.49551392 -0.00482178 C93.45910828 -0.00887024 94.42270264 -0.0129187 95.41549683 -0.01708984 C107.4330005 0.05639164 120.78881231 1.36999462 129.75576782 10.25006104 C136.21262238 18.54053692 137.61373655 27.92967772 136.74014282 38.25396729 C136.05609057 41.41030286 134.99970096 44.28427737 133.74014282 47.25396729 C133.26447876 48.40638916 133.26447876 48.40638916 132.77920532 49.58209229 C128.27100228 59.49374436 120.92310981 69.09387117 112.74014282 76.25396729 C112.08014282 76.25396729 111.42014282 76.25396729 110.74014282 76.25396729 C110.74014282 76.91396729 110.74014282 77.57396729 110.74014282 78.25396729 C111.88740845 78.19982666 113.03467407 78.14568604 114.21670532 78.08990479 C118.90478491 78.09609231 122.75416931 79.24977341 127.11514282 80.87896729 C127.85901245 81.1518457 128.60288208 81.42472412 129.36929321 81.70587158 C146.46828493 88.18013862 159.60241634 100.42033501 167.45108032 116.95709229 C174.0269053 133.77526283 173.12153542 150.9596986 166.41983032 167.51568604 C163.18181309 174.42522555 159.10792434 180.78946898 153.74014282 186.25396729 C153.08014282 186.25396729 152.42014282 186.25396729 151.74014282 186.25396729 C151.41014282 187.24396729 151.08014282 188.23396729 150.74014282 189.25396729 C135.89075985 201.84596187 116.52682789 206.4428243 97.53358459 206.3742218 C96.21122955 206.37550344 96.21122955 206.37550344 94.86216027 206.37681097 C91.9327133 206.37844718 89.00332467 206.37297507 86.07388306 206.36749268 C83.96420798 206.36721038 81.85453281 206.36736937 79.74485779 206.36793518 C74.03482039 206.36822148 68.32480411 206.3623517 62.6147716 206.35536122 C56.64102457 206.34909993 50.66727703 206.34852169 44.69352722 206.34733582 C33.38904553 206.34423068 22.08457354 206.33602832 10.78009611 206.32598633 C-2.09290145 206.31479978 -14.96589947 206.30930833 -27.83890069 206.30429089 C-54.31255822 206.29384503 -80.78620716 206.27626143 -107.25985718 206.25396729 C-108.37385546 202.88295966 -108.30568185 202.36167379 -106.81063843 198.84771729 C-106.07858894 197.47554853 -105.33133358 196.11142755 -104.57235718 194.75396729 C-104.17242554 194.02000732 -103.7724939 193.28604736 -103.36044312 192.52984619 C-98.27396682 183.29876203 -92.98324458 174.10635951 -87.25985718 165.25396729 C-86.93888402 164.68254525 -86.61791086 164.11112321 -86.28721124 163.52238536 C-84.03631959 159.85336148 -83.05446433 158.44954163 -78.73089886 157.38539505 C-77.34605162 157.35271896 -75.95997291 157.35831408 -74.57521057 157.39440918 C-73.80887513 157.38646135 -73.04253969 157.37851352 -72.25298196 157.37032485 C-69.68803884 157.35212467 -67.12615077 157.38373611 -64.56137085 157.4151001 C-62.72141286 157.41212293 -60.88145766 157.40602809 -59.04151917 157.39704895 C-55.08032744 157.38441207 -51.120017 157.39383897 -47.15889549 157.42035675 C-40.89299488 157.46216388 -34.6277301 157.45506308 -28.36174011 157.44140625 C-18.44774287 157.42562804 -8.53411949 157.44287427 1.37983102 157.47407699 C19.12405862 157.52930676 36.8682939 157.53792994 54.61259097 157.52057338 C60.83834872 157.51590948 67.06375879 157.52864805 73.28945696 157.55567884 C77.16740756 157.56997617 81.04530288 157.5722313 84.9232769 157.57163811 C86.71793717 157.57401651 88.51259941 157.5815677 90.30721283 157.59475136 C92.76319455 157.61217541 95.21852285 157.61103112 97.67454529 157.60559082 C98.37933024 157.61521323 99.08411519 157.62483565 99.81025726 157.63474965 C106.30205329 157.58478052 111.57622462 155.99451018 116.61514282 151.94146729 C120.16427142 147.45286347 120.95264049 143.88174096 120.61514282 138.25396729 C120.00144752 133.66159573 118.96207374 130.72373904 115.74014282 127.25396729 C110.02721285 123.53697728 104.44920305 122.1463671 97.65913391 122.0957489 C96.65939041 122.08596008 95.65964691 122.07617126 94.62960815 122.06608582 C93.54419739 122.06033035 92.45878662 122.05457489 91.34048462 122.04864502 C89.61300743 122.03379562 89.61300743 122.03379562 87.85063171 122.01864624 C84.04689586 121.98707793 80.24314752 121.96229214 76.43936157 121.93756104 C73.80091529 121.91698749 71.16247228 121.89599091 68.52403259 121.87458801 C62.29101367 121.82473929 56.05796952 121.77977157 49.8249014 121.73656565 C42.72694627 121.68712629 35.62903657 121.63223307 28.53112543 121.57688606 C13.93417427 121.46318613 -0.66282211 121.35632113 -15.25985718 121.25396729 C-14.62960824 117.08431849 -13.85875968 114.01996219 -11.74813843 110.35552979 C-11.23702515 109.46349854 -10.72591187 108.57146729 -10.1993103 107.65240479 C-9.39396851 106.27955322 -9.39396851 106.27955322 -8.57235718 104.87896729 C-8.05479858 103.97146729 -7.53723999 103.06396729 -7.0039978 102.12896729 C3.01461043 84.81162204 3.01461043 84.81162204 11.74014282 81.25396729 C13.78332076 80.87554943 15.84131291 80.57378135 17.90420532 80.32427979 C19.10947876 80.16830322 20.3147522 80.01232666 21.55654907 79.85162354 C24.07157936 79.53950183 26.58720243 79.23211582 29.10342407 78.92974854 C44.81790351 76.87567737 55.27539678 71.26649321 65.36514282 58.81646729 C67.02062293 56.65758609 68.52492366 54.68440561 69.74014282 52.25396729 C58.75256317 48.98263234 48.31565158 48.79709304 36.94717407 48.77740479 C35.06481325 48.76306676 33.18246279 48.7473048 31.30012512 48.73019409 C26.38720743 48.68866343 21.47435412 48.66344599 16.56130981 48.6427002 C8.66048741 48.60663729 0.759823 48.54596594 -7.1408329 48.48421097 C-9.89626141 48.46512344 -12.6516471 48.45339961 -15.40711975 48.44277954 C-17.08353777 48.43257471 -18.75995487 48.42221742 -20.43637085 48.41168213 C-21.20356949 48.4106398 -21.97076813 48.40959747 -22.76121521 48.40852356 C-28.03298191 48.36740492 -28.03298191 48.36740492 -30.25985718 47.25396729 C-29.69303877 43.82125512 -28.86213958 41.13359103 -27.17782593 38.09381104 C-26.74590942 37.30925537 -26.31399292 36.52469971 -25.86898804 35.71636963 C-25.39984985 34.88315186 -24.93071167 34.04993408 -24.44735718 33.19146729 C-23.96468384 32.32473389 -23.4820105 31.45800049 -22.98471069 30.56500244 C-19.3192009 24.02906857 -15.53938893 17.56250556 -11.69735718 11.12896729 C-10.92911621 9.841073 -10.92911621 9.841073 -10.14535522 8.52716064 C-9.4266626 7.33618774 -9.4266626 7.33618774 -8.69345093 6.12115479 C-8.27120239 5.42103271 -7.84895386 4.72091064 -7.41390991 3.99957275 C-5.17334044 0.61051591 -3.95173569 0.00382518 0 0 Z " fill="#FA6A1F" transform="translate(552.2598571777344,460.74603271484375)"/>
<path d="M0 0 C1.19097671 3.50377666 1.05845725 3.87875533 -0.6875 7.5 C-2.47003941 10.3880865 -4.45749499 12.72990624 -7 15 C-5.45454854 9.52067211 -2.84456788 4.88570819 0 0 Z " fill="#FBEFE6" transform="translate(408,549)"/>
<path d="M0 0 C1 2 1 2 0.375 4.75 C-1.25172204 8.59497936 -3.2108368 10.91724067 -6 14 C-6.33 13.34 -6.66 12.68 -7 12 C-5.56640625 9.1796875 -5.56640625 9.1796875 -3.5625 5.875 C-2.57443359 4.23144531 -2.57443359 4.23144531 -1.56640625 2.5546875 C-1.04949219 1.71164062 -0.53257812 0.86859375 0 0 Z " fill="#FA5A13" transform="translate(327,518)"/>
<path d="M0 0 C0.33 0.66 0.66 1.32 1 2 C-0.43359375 4.8203125 -0.43359375 4.8203125 -2.4375 8.125 C-3.09621094 9.22070312 -3.75492187 10.31640625 -4.43359375 11.4453125 C-4.95050781 12.28835938 -5.46742188 13.13140625 -6 14 C-7 12 -7 12 -6.44140625 9.8359375 C-6.15136719 9.02382813 -5.86132812 8.21171875 -5.5625 7.375 C-5.27503906 6.55773437 -4.98757813 5.74046875 -4.69140625 4.8984375 C-4.46324219 4.27195312 -4.23507812 3.64546875 -4 3 C-3.01 3 -2.02 3 -1 3 C-0.67 2.01 -0.34 1.02 0 0 Z " fill="#FB5915" transform="translate(446,480)"/>
<path d="M0 0 C0.99 0.33 1.98 0.66 3 1 C1.1875 3 1.1875 3 -1 5 C-1.99 5 -2.98 5 -4 5 C-4.33 5.66 -4.66 6.32 -5 7 C-5 6.01 -5 5.02 -5 4 C-2.6875 1.75 -2.6875 1.75 0 0 Z " fill="#FA5714" transform="translate(560,544)"/>
<path d="M0 0 C0.93423645 3.01031744 1.04449911 3.86650268 0 7 C-2.0625 8.1875 -2.0625 8.1875 -4 9 C-2.94124926 5.59687262 -1.99097846 2.98646769 0 0 Z " fill="#FA5A14" transform="translate(307,554)"/>
</svg>
